<svg width="35" height="34" viewBox="0 0 35 34" fill="none" xmlns="http://www.w3.org/2000/svg">
<path d="M29.6669 8.58171L29.667 6.95671H29.6669V8.58171ZM32.9836 12.2467L34.6005 12.4084L34.6005 12.4084L32.9836 12.2467ZM31.9836 22.2467L30.3667 22.085L30.3667 22.085L31.9836 22.2467ZM28.6669 25.2484L28.6669 26.8734L28.667 26.8734L28.6669 25.2484ZM12.7503 25.2484L12.7503 23.6234L12.7496 23.6234L12.7503 25.2484ZM9.48026 22.5684L11.0737 22.2499L11.0737 22.2498L9.48026 22.5684ZM5.33359 3.17671L6.91016 2.78293L6.90989 2.78183L5.33359 3.17671ZM3.71693 1.91504L3.71697 0.290039H3.71693V1.91504ZM1.68359 1.91504V0.290039C1.06809 0.290039 0.505412 0.637793 0.23015 1.18832C-0.0451125 1.73884 0.014291 2.39764 0.383594 2.89004L1.68359 1.91504ZM11.6836 30.29C10.7861 30.29 10.0586 31.0176 10.0586 31.915C10.0586 32.8125 10.7861 33.54 11.6836 33.54V30.29ZM15.0169 33.54C15.9144 33.54 16.6419 32.8125 16.6419 31.915C16.6419 31.0176 15.9144 30.29 15.0169 30.29V33.54ZM25.0169 30.29C24.1195 30.29 23.3919 31.0176 23.3919 31.915C23.3919 32.8125 24.1195 33.54 25.0169 33.54V30.29ZM28.3503 33.54C29.2477 33.54 29.9753 32.8125 29.9753 31.915C29.9753 31.0176 29.2477 30.29 28.3503 30.29V33.54ZM6.68359 10.2067H29.6669V6.95671H6.68359V10.2067ZM29.6669 10.2067C29.9055 10.2067 30.1416 10.2567 30.3597 10.3535L31.6779 7.38289C31.0448 7.10191 30.3597 6.95673 29.667 6.95671L29.6669 10.2067ZM30.3597 10.3535C30.5779 10.4503 30.7733 10.5918 30.9335 10.7688L33.3432 8.58803C32.8784 8.0744 32.3111 7.66387 31.6779 7.38289L30.3597 10.3535ZM30.9335 10.7688C31.0936 10.9457 31.2149 11.1543 31.2895 11.381L34.3766 10.365C34.1601 9.70699 33.808 9.10166 33.3432 8.58803L30.9335 10.7688ZM31.2895 11.381C31.3641 11.6077 31.3904 11.8475 31.3667 12.085L34.6005 12.4084C34.6695 11.7191 34.5932 11.023 34.3766 10.365L31.2895 11.381ZM31.3667 12.085L30.3667 22.085L33.6005 22.4084L34.6005 12.4084L31.3667 12.085ZM30.3667 22.085C30.3245 22.5066 30.1272 22.8974 29.8131 23.1817L31.9939 25.5913C32.9056 24.7663 33.4782 23.6319 33.6005 22.4084L30.3667 22.085ZM29.8131 23.1817C29.499 23.4659 29.0905 23.6234 28.6669 23.6234L28.667 26.8734C29.8966 26.8733 31.0823 26.4164 31.9939 25.5913L29.8131 23.1817ZM28.6669 23.6234H12.7503V26.8734H28.6669V23.6234ZM12.7496 23.6234C12.3545 23.6235 11.9716 23.4867 11.6661 23.2363L9.60594 25.75C10.4928 26.4768 11.6042 26.8738 12.7509 26.8734L12.7496 23.6234ZM11.6661 23.2363C11.3605 22.9859 11.1512 22.6373 11.0737 22.2499L7.88678 22.8869C8.11153 24.0113 8.71906 25.0231 9.60594 25.75L11.6661 23.2363ZM11.0737 22.2498L8.27705 8.26309L5.09014 8.90032L7.8868 22.887L11.0737 22.2498ZM8.26016 8.18793L6.91016 2.78293L3.75703 3.57048L5.10703 8.97548L8.26016 8.18793ZM6.90989 2.78183C6.73157 2.07002 6.32052 1.4382 5.74203 0.986738L3.74252 3.54886C3.74984 3.55457 3.75504 3.56257 3.7573 3.57158L6.90989 2.78183ZM5.74203 0.986738C5.16354 0.535275 4.45078 0.290058 3.71697 0.290039L3.71688 3.54004C3.72617 3.54004 3.7352 3.54314 3.74252 3.54886L5.74203 0.986738ZM3.71693 0.290039H1.68359V3.54004H3.71693V0.290039ZM0.383594 2.89004L5.38359 9.55671L7.98359 7.60671L2.98359 0.940039L0.383594 2.89004ZM11.6836 33.54H15.0169V30.29H11.6836V33.54ZM25.0169 33.54H28.3503V30.29H25.0169V33.54Z" fill="white"/>
<path d="M29.6669 8.58171L29.667 6.95671H29.6669V8.58171ZM32.9836 12.2467L34.6005 12.4084L34.6005 12.4084L32.9836 12.2467ZM31.9836 22.2467L30.3667 22.085L30.3667 22.085L31.9836 22.2467ZM28.6669 25.2484L28.6669 26.8734L28.667 26.8734L28.6669 25.2484ZM12.7503 25.2484L12.7503 23.6234L12.7496 23.6234L12.7503 25.2484ZM9.48026 22.5684L11.0737 22.2499L11.0737 22.2498L9.48026 22.5684ZM5.33359 3.17671L6.91016 2.78293L6.90989 2.78183L5.33359 3.17671ZM3.71693 1.91504L3.71697 0.290039H3.71693V1.91504ZM1.68359 1.91504V0.290039C1.06809 0.290039 0.505412 0.637793 0.23015 1.18832C-0.0451125 1.73884 0.014291 2.39764 0.383594 2.89004L1.68359 1.91504ZM11.6836 30.29C10.7861 30.29 10.0586 31.0176 10.0586 31.915C10.0586 32.8125 10.7861 33.54 11.6836 33.54V30.29ZM15.0169 33.54C15.9144 33.54 16.6419 32.8125 16.6419 31.915C16.6419 31.0176 15.9144 30.29 15.0169 30.29V33.54ZM25.0169 30.29C24.1195 30.29 23.3919 31.0176 23.3919 31.915C23.3919 32.8125 24.1195 33.54 25.0169 33.54V30.29ZM28.3503 33.54C29.2477 33.54 29.9753 32.8125 29.9753 31.915C29.9753 31.0176 29.2477 30.29 28.3503 30.29V33.54ZM6.68359 10.2067H29.6669V6.95671H6.68359V10.2067ZM29.6669 10.2067C29.9055 10.2067 30.1416 10.2567 30.3597 10.3535L31.6779 7.38289C31.0448 7.10191 30.3597 6.95673 29.667 6.95671L29.6669 10.2067ZM30.3597 10.3535C30.5779 10.4503 30.7733 10.5918 30.9335 10.7688L33.3432 8.58803C32.8784 8.0744 32.3111 7.66387 31.6779 7.38289L30.3597 10.3535ZM30.9335 10.7688C31.0936 10.9457 31.2149 11.1543 31.2895 11.381L34.3766 10.365C34.1601 9.70699 33.808 9.10166 33.3432 8.58803L30.9335 10.7688ZM31.2895 11.381C31.3641 11.6077 31.3904 11.8475 31.3667 12.085L34.6005 12.4084C34.6695 11.7191 34.5932 11.023 34.3766 10.365L31.2895 11.381ZM31.3667 12.085L30.3667 22.085L33.6005 22.4084L34.6005 12.4084L31.3667 12.085ZM30.3667 22.085C30.3245 22.5066 30.1272 22.8974 29.8131 23.1817L31.9939 25.5913C32.9056 24.7663 33.4782 23.6319 33.6005 22.4084L30.3667 22.085ZM29.8131 23.1817C29.499 23.4659 29.0905 23.6234 28.6669 23.6234L28.667 26.8734C29.8966 26.8733 31.0823 26.4164 31.9939 25.5913L29.8131 23.1817ZM28.6669 23.6234H12.7503V26.8734H28.6669V23.6234ZM12.7496 23.6234C12.3545 23.6235 11.9716 23.4867 11.6661 23.2363L9.60594 25.75C10.4928 26.4768 11.6042 26.8738 12.7509 26.8734L12.7496 23.6234ZM11.6661 23.2363C11.3605 22.9859 11.1512 22.6373 11.0737 22.2499L7.88678 22.8869C8.11153 24.0113 8.71906 25.0231 9.60594 25.75L11.6661 23.2363ZM11.0737 22.2498L8.27705 8.26309L5.09014 8.90032L7.8868 22.887L11.0737 22.2498ZM8.26016 8.18793L6.91016 2.78293L3.75703 3.57048L5.10703 8.97548L8.26016 8.18793ZM6.90989 2.78183C6.73157 2.07002 6.32052 1.4382 5.74203 0.986738L3.74252 3.54886C3.74984 3.55457 3.75504 3.56257 3.7573 3.57158L6.90989 2.78183ZM5.74203 0.986738C5.16354 0.535275 4.45078 0.290058 3.71697 0.290039L3.71688 3.54004C3.72617 3.54004 3.7352 3.54314 3.74252 3.54886L5.74203 0.986738ZM3.71693 0.290039H1.68359V3.54004H3.71693V0.290039ZM0.383594 2.89004L5.38359 9.55671L7.98359 7.60671L2.98359 0.940039L0.383594 2.89004ZM11.6836 33.54H15.0169V30.29H11.6836V33.54ZM25.0169 33.54H28.3503V30.29H25.0169V33.54Z" fill="url(#paint0_linear_700_2379)"/>
<defs>
<linearGradient id="paint0_linear_700_2379" x1="1.68359" y1="16.6209" x2="33.0001" y2="16.6209" gradientUnits="userSpaceOnUse">
<stop stop-color="#FF007D"/>
<stop offset="1" stop-color="#B627DC"/>
</linearGradient>
</defs>
</svg>
