<svg width="26" height="31" viewBox="0 0 26 31" fill="none" xmlns="http://www.w3.org/2000/svg">
<path d="M5.26876 1.61387L7.17551 1.08986C8.22004 0.802068 9.34349 0.871347 10.3362 1.28477C11.329 1.6982 12.1231 2.42752 12.5706 3.33666L14.0444 6.3314C14.4291 7.11337 14.5362 7.98578 14.3508 8.82622C14.1653 9.66665 13.6965 10.4329 13.0101 11.0176L10.5691 13.0972C10.4977 13.1579 10.4525 13.24 10.4417 13.3286C10.3698 13.9212 10.8093 15.0752 11.8223 16.6801C12.5592 17.8461 13.2274 18.6656 13.7944 19.124C14.1898 19.4449 14.4071 19.5136 14.5002 19.4897L17.7843 18.5716C18.6812 18.3209 19.6414 18.333 20.5304 18.6061C21.4194 18.8792 22.1926 19.3996 22.7416 20.0943L24.8346 22.7457C25.4711 23.552 25.7657 24.5419 25.6639 25.5317C25.562 26.5215 25.0705 27.4438 24.2807 28.1276L22.8331 29.3816C22.0648 30.0464 21.1211 30.5181 20.094 30.7506C19.067 30.9832 17.9915 30.9688 16.9723 30.7088C12.4726 29.5608 8.43851 26.0913 4.82435 20.372C1.20528 14.6453 -0.0642482 9.71279 1.10562 5.57301C1.36896 4.64194 1.89035 3.78856 2.61953 3.09511C3.34872 2.40166 4.26111 1.89152 5.26876 1.61387ZM5.97624 3.75915C5.37182 3.92554 4.82447 4.23133 4.38692 4.64707C3.94937 5.06281 3.63635 5.5745 3.47802 6.13284C2.49442 9.61426 3.62017 13.9869 6.94677 19.2524C10.2685 24.5103 13.845 27.5857 17.6324 28.5531C18.2437 28.7086 18.8887 28.717 19.5045 28.5773C20.1204 28.4376 20.6862 28.1546 21.1469 27.7559L22.5962 26.5018C22.9553 26.191 23.1788 25.7716 23.225 25.3216C23.2713 24.8716 23.1373 24.4215 22.8478 24.055L20.7564 21.4051C20.5068 21.0889 20.1552 20.8521 19.7508 20.7278C19.3464 20.6036 18.9096 20.5982 18.5016 20.7124L15.2093 21.6335C13.2977 22.153 11.5625 20.7482 9.69987 17.7998C8.44504 15.8142 7.86011 14.2766 8.00553 13.0807C8.08232 12.4597 8.39766 11.8864 8.89763 11.4595L11.3387 9.37988C11.6508 9.11416 11.864 8.76582 11.9484 8.38375C12.0328 8.00167 11.9841 7.60504 11.8092 7.24952L10.3355 4.25479C10.1321 3.84187 9.7713 3.5106 9.32039 3.32273C8.86948 3.13486 8.35919 3.1032 7.88462 3.23365L5.97624 3.75915Z" fill="black"/>
<path d="M5.26876 1.61387L7.17551 1.08986C8.22004 0.802068 9.34349 0.871347 10.3362 1.28477C11.329 1.6982 12.1231 2.42752 12.5706 3.33666L14.0444 6.3314C14.4291 7.11337 14.5362 7.98578 14.3508 8.82622C14.1653 9.66665 13.6965 10.4329 13.0101 11.0176L10.5691 13.0972C10.4977 13.1579 10.4525 13.24 10.4417 13.3286C10.3698 13.9212 10.8093 15.0752 11.8223 16.6801C12.5592 17.8461 13.2274 18.6656 13.7944 19.124C14.1898 19.4449 14.4071 19.5136 14.5002 19.4897L17.7843 18.5716C18.6812 18.3209 19.6414 18.333 20.5304 18.6061C21.4194 18.8792 22.1926 19.3996 22.7416 20.0943L24.8346 22.7457C25.4711 23.552 25.7657 24.5419 25.6639 25.5317C25.562 26.5215 25.0705 27.4438 24.2807 28.1276L22.8331 29.3816C22.0648 30.0464 21.1211 30.5181 20.094 30.7506C19.067 30.9832 17.9915 30.9688 16.9723 30.7088C12.4726 29.5608 8.43851 26.0913 4.82435 20.372C1.20528 14.6453 -0.0642482 9.71279 1.10562 5.57301C1.36896 4.64194 1.89035 3.78856 2.61953 3.09511C3.34872 2.40166 4.26111 1.89152 5.26876 1.61387ZM5.97624 3.75915C5.37182 3.92554 4.82447 4.23133 4.38692 4.64707C3.94937 5.06281 3.63635 5.5745 3.47802 6.13284C2.49442 9.61426 3.62017 13.9869 6.94677 19.2524C10.2685 24.5103 13.845 27.5857 17.6324 28.5531C18.2437 28.7086 18.8887 28.717 19.5045 28.5773C20.1204 28.4376 20.6862 28.1546 21.1469 27.7559L22.5962 26.5018C22.9553 26.191 23.1788 25.7716 23.225 25.3216C23.2713 24.8716 23.1373 24.4215 22.8478 24.055L20.7564 21.4051C20.5068 21.0889 20.1552 20.8521 19.7508 20.7278C19.3464 20.6036 18.9096 20.5982 18.5016 20.7124L15.2093 21.6335C13.2977 22.153 11.5625 20.7482 9.69987 17.7998C8.44504 15.8142 7.86011 14.2766 8.00553 13.0807C8.08232 12.4597 8.39766 11.8864 8.89763 11.4595L11.3387 9.37988C11.6508 9.11416 11.864 8.76582 11.9484 8.38375C12.0328 8.00167 11.9841 7.60504 11.8092 7.24952L10.3355 4.25479C10.1321 3.84187 9.7713 3.5106 9.32039 3.32273C8.86948 3.13486 8.35919 3.1032 7.88462 3.23365L5.97624 3.75915Z" fill="url(#paint0_linear_700_2378)"/>
<defs>
<linearGradient id="paint0_linear_700_2378" x1="0.683594" y1="15.6209" x2="25.6836" y2="15.6209" gradientUnits="userSpaceOnUse">
<stop stop-color="#FF007D"/>
<stop offset="1" stop-color="#B627DC"/>
</linearGradient>
</defs>
</svg>
