<svg width="30" height="31" viewBox="0 0 30 31" fill="none" xmlns="http://www.w3.org/2000/svg">
<path fill-rule="evenodd" clip-rule="evenodd" d="M20.455 11.8247C20.455 13.2713 19.8803 14.6587 18.8574 15.6816C17.8345 16.7045 16.4471 17.2792 15.0004 17.2792C13.5538 17.2792 12.1664 16.7045 11.1435 15.6816C10.1206 14.6587 9.5459 13.2713 9.5459 11.8247C9.5459 10.378 10.1206 8.99064 11.1435 7.96772C12.1664 6.94479 13.5538 6.37012 15.0004 6.37012C16.4471 6.37012 17.8345 6.94479 18.8574 7.96772C19.8803 8.99064 20.455 10.378 20.455 11.8247ZM17.7277 11.8247C17.7277 12.548 17.4404 13.2417 16.9289 13.7531C16.4175 14.2646 15.7238 14.5519 15.0004 14.5519C14.2771 14.5519 13.5834 14.2646 13.072 13.7531C12.5605 13.2417 12.2732 12.548 12.2732 11.8247C12.2732 11.1013 12.5605 10.4077 13.072 9.89619C13.5834 9.38473 14.2771 9.09739 15.0004 9.09739C15.7238 9.09739 16.4175 9.38473 16.9289 9.89619C17.4404 10.4077 17.7277 11.1013 17.7277 11.8247Z" fill="url(#paint0_linear_955_1926)"/>
<path fill-rule="evenodd" clip-rule="evenodd" d="M15 0.915039C6.71591 0.915039 0 7.63095 0 15.915C0 24.1991 6.71591 30.915 15 30.915C23.2841 30.915 30 24.1991 30 15.915C30 7.63095 23.2841 0.915039 15 0.915039ZM2.72727 15.915C2.72727 18.765 3.69955 21.3887 5.32909 23.4723C6.4735 21.9694 7.94986 20.7515 9.64286 19.9136C11.3359 19.0758 13.1997 18.6407 15.0886 18.6423C16.9532 18.6405 18.7935 19.0644 20.4695 19.8816C22.1454 20.6987 23.6127 21.8877 24.7595 23.3578C25.9411 21.8081 26.7366 19.9994 27.0803 18.0813C27.424 16.1632 27.306 14.1908 26.7361 12.3273C26.1662 10.4638 25.1608 8.76283 23.8029 7.36509C22.4451 5.96735 20.774 4.91303 18.9278 4.28937C17.0816 3.66571 15.1135 3.49064 13.1862 3.77864C11.2589 4.06664 9.4279 4.80944 7.84469 5.94557C6.26147 7.0817 4.97156 8.5785 4.08168 10.3121C3.19179 12.0457 2.72752 13.9664 2.72727 15.915ZM15 28.1878C12.1827 28.192 9.45036 27.2228 7.26545 25.4441C8.1449 24.1851 9.31546 23.1572 10.6775 22.4478C12.0396 21.7384 13.5529 21.3685 15.0886 21.3696C16.6052 21.3684 18.1002 21.729 19.4494 22.4215C20.7987 23.1141 21.9632 24.1185 22.8464 25.3514C20.6445 27.1878 17.8672 28.1918 15 28.1878Z" fill="url(#paint1_linear_955_1926)"/>
<defs>
<linearGradient id="paint0_linear_955_1926" x1="9.5459" y1="11.7177" x2="20.455" y2="11.7177" gradientUnits="userSpaceOnUse">
<stop stop-color="#FF007D"/>
<stop offset="1" stop-color="#B627DC"/>
</linearGradient>
<linearGradient id="paint1_linear_955_1926" x1="1.74587e-07" y1="15.6209" x2="30" y2="15.6209" gradientUnits="userSpaceOnUse">
<stop stop-color="#FF007D"/>
<stop offset="1" stop-color="#B627DC"/>
</linearGradient>
</defs>
</svg>
